<svg width="28" height="28" viewBox="0 0 28 28" fill="none" xmlns="http://www.w3.org/2000/svg">
<path fill-rule="evenodd" clip-rule="evenodd" d="M13.75 27.5C6.15608 27.5 0 21.3439 0 13.75C0 6.15608 6.15608 0 13.75 0C21.3439 0 27.5 6.15608 27.5 13.75C27.5 21.3439 21.3439 27.5 13.75 27.5ZM22.9994 20.1558C24.2608 18.3379 25 16.1303 25 13.75C25 7.5368 19.9632 2.5 13.75 2.5C7.5368 2.5 2.5 7.5368 2.5 13.75C2.5 16.1303 3.23923 18.3379 4.50063 20.1558C5.90744 18.2976 9.21325 17.5 13.75 17.5C18.2867 17.5 21.5926 18.2976 22.9994 20.1558ZM21.2059 22.1747C20.84 20.8592 18.2117 20 13.75 20C9.28828 20 6.66 20.8592 6.29415 22.1747C8.27913 23.9327 10.8899 25 13.75 25C16.6101 25 19.2209 23.9327 21.2059 22.1747ZM13.75 17.5C10.9511 17.5 8.75 15.5342 8.75 11.25C8.75 8.4447 10.7239 6.25 13.75 6.25C16.7677 6.25 18.75 8.65197 18.75 11.5C18.75 15.5995 16.5226 17.5 13.75 17.5ZM11.25 11.25C11.25 14.0866 12.2728 15 13.75 15C15.2221 15 16.25 14.123 16.25 11.5C16.25 9.93802 15.2696 8.75 13.75 8.75C12.1672 8.75 11.25 9.76978 11.25 11.25Z" fill="white"/>
</svg>
