<svg width="36" height="36" viewBox="0 0 36 36" fill="none" xmlns="http://www.w3.org/2000/svg">
<path d="M23.7411 0.097496C22.0387 0.400059 20.3362 1.14756 18.9992 2.18873C18.5446 2.54469 14.9168 6.10424 10.2372 10.7851C4.30081 16.7384 2.15265 18.9453 1.84959 19.4081C0.0847225 22.1133 -0.423347 25.0767 0.352127 28.1023C1.11869 31.0923 3.47185 33.8065 6.35091 35.0523C9.16757 36.2626 12.4923 36.1736 15.1931 34.8298C16.7708 34.0378 16.7797 34.0289 25.1673 25.6907C29.8558 21.0188 33.4212 17.3969 33.7777 16.9431C37.0846 12.7072 36.6568 6.67377 32.7883 2.94514C31.2641 1.48572 29.6597 0.622532 27.6007 0.177586C26.7093 -0.0181885 24.6503 -0.0626831 23.7411 0.097496ZM26.2904 3.53247C29.526 3.93291 32.0396 6.4424 32.4407 9.68159C32.6368 11.2923 32.2 13.0543 31.2552 14.4692C30.9611 14.9141 23.0904 22.8341 22.9478 22.8341C22.832 22.8341 13.0984 13.1166 13.0984 13.0009C13.0984 12.8585 21.0314 5.00078 21.4771 4.70712C22.4041 4.0931 23.5094 3.67485 24.6057 3.53247C25.4258 3.42568 25.4614 3.42568 26.2904 3.53247Z" fill="#E4A2A2"/>
</svg>
