<svg width="27" height="27" viewBox="0 0 27 27" fill="none" xmlns="http://www.w3.org/2000/svg">
<path d="M11.8579 0.0449028C8.25179 0.374437 4.94004 2.01321 2.56661 4.64058C1.51789 5.80732 1.27871 6.45748 1.64668 7.21452C1.84907 7.64203 2.14344 7.91813 2.59421 8.10516C3.43135 8.4347 4.0477 8.18532 4.94924 7.15218C6.8351 4.96121 9.17172 3.74104 12.0971 3.42041C14.1302 3.19775 16.4668 3.6876 18.3158 4.72965C23.0627 7.40156 24.875 13.1283 22.4923 17.9022C22.0048 18.8819 21.462 19.6122 20.5789 20.5028C17.6443 23.4419 13.4034 24.3682 9.36491 22.9343C7.76423 22.3732 6.29234 21.3489 5.00443 19.8972C4.52607 19.3539 4.0845 18.9442 3.90051 18.873C2.52982 18.3208 1.03953 19.7191 1.60988 21.0283C1.79387 21.4647 2.45622 22.2663 3.26576 23.05C7.46065 27.1113 13.891 28.1534 19.1806 25.6507C20.6525 24.9471 21.6644 24.2435 22.9155 23.0322C25.0313 20.9749 26.3101 18.6503 26.8344 15.8715C27.0552 14.7048 27.0552 12.2822 26.8344 11.2669C26.4204 9.38768 25.5741 7.53515 24.3966 5.9231C23.6055 4.84543 21.9128 3.19775 20.7905 2.4229C19.7601 1.7193 18.0215 0.864288 16.9451 0.543659C15.5101 0.107246 13.4034 -0.097599 11.8579 0.0449028Z" fill="white"/>
<path d="M12.1063 7.30362C11.3888 7.55299 10.9472 8.15863 10.9472 8.90676C10.9472 9.5213 11.2048 9.90427 12.2903 10.9018L13.2746 11.8013H7.35026C1.80307 11.8013 1.3983 11.8191 1.05792 11.9705C0.459966 12.2288 0 12.8968 0 13.4935C0 14.0903 0.459966 14.7582 1.05792 15.0165C1.3983 15.1679 1.80307 15.1857 7.35945 15.1857H13.293L12.2535 16.1387C11.6187 16.7355 11.1772 17.2253 11.0852 17.4301C10.5424 18.7216 11.7015 20.0397 13.0998 19.7191C13.5414 19.6211 13.6886 19.5053 15.8964 17.3767C18.5826 14.7939 18.7206 14.6068 18.7206 13.4935C18.7206 12.3802 18.5826 12.1932 15.8964 9.61036C13.9738 7.76675 13.5046 7.36596 13.1918 7.2769C12.7135 7.1433 12.5571 7.1433 12.1063 7.30362Z" fill="white"/>
</svg>
