<svg width="50" height="50" viewBox="0 0 50 50" fill="none" xmlns="http://www.w3.org/2000/svg">
<path d="M4.95833 1.19085C3.23366 1.83359 2.09816 3.27974 2.00175 5.00441C1.92676 6.18276 4.28346 20.1301 4.74408 21.287C6.04027 24.5114 8.99684 26.6967 12.489 26.9859L13.3032 27.0609L13.346 31.2494C13.3889 35.1272 13.4103 35.5022 13.6245 36.2413C14.7707 40.3227 18.2415 42.99 22.3764 42.99C25.9115 42.99 28.9966 41.0297 30.5177 37.8374C31.1712 36.4556 31.3319 35.6093 31.4176 33.0812C31.4925 31.1316 31.5354 30.7459 31.7389 30.221C32.3067 28.7642 33.6243 27.5858 35.124 27.2002C37.9199 26.461 40.8122 28.3464 41.2835 31.2066C41.3585 31.635 41.3907 33.2954 41.3692 35.4807L41.3371 39.0479L40.7479 39.2729C38.6376 40.0549 37.4057 41.801 37.4057 44.0077C37.4057 46.0644 38.4127 47.6284 40.3087 48.539C41.6692 49.1924 43.3831 49.1496 44.7436 48.4211C47.6895 46.8679 48.2893 42.8722 45.9327 40.4726C45.3863 39.9156 44.0366 39.1336 43.6295 39.1336C43.4474 39.1336 43.4367 38.8872 43.4046 34.9237L43.3617 30.7245L43.0725 29.8461C42.2905 27.5108 40.2659 25.679 37.8985 25.1434C36.1631 24.7578 34.0849 25.1327 32.5959 26.0861C31.3212 26.9109 30.2071 28.3357 29.7036 29.814C29.5001 30.4031 29.4572 30.8531 29.3822 32.8134C29.2965 35.1594 29.2001 35.77 28.7609 36.8091C28.1718 38.1802 26.897 39.5085 25.5151 40.2048C24.3475 40.7833 23.3084 40.9975 21.9587 40.9226C20.1697 40.8261 18.7985 40.2155 17.4917 38.9194C16.6025 38.041 16.0562 37.1626 15.6706 35.9735C15.4349 35.2558 15.4242 35.0415 15.3813 31.1209L15.3385 27.0288H15.767C16.0026 27.0288 16.6132 26.9538 17.1274 26.8681C20.4268 26.2896 23.0513 24.0294 24.1654 20.8157C24.2725 20.4943 24.9259 16.895 25.6008 12.8351C26.7577 5.88281 26.8327 5.40076 26.7256 4.74732C26.3935 2.69057 24.7331 1.13729 22.7514 1.01946C21.9372 0.976607 21.9372 0.976607 21.648 1.3194C21.016 2.05854 21.5623 3.02265 22.6121 3.03336C23.0942 3.04407 23.7476 3.39757 24.1654 3.89034C24.8938 4.7366 24.9152 4.47951 23.5976 12.4066C22.9549 16.2951 22.3229 19.7873 22.205 20.1729C21.648 21.9298 20.3411 23.4188 18.6271 24.2436C17.3095 24.8649 16.8811 24.9399 14.3423 24.9399C12.5212 24.9399 11.9641 24.9078 11.4071 24.7471C9.8324 24.3186 8.53622 23.4402 7.5614 22.1547C6.56516 20.8264 6.50089 20.5693 5.17257 12.653C4.30488 7.4468 4.00494 5.41148 4.04779 5.02583C4.16562 3.96532 4.99047 3.18333 6.16881 3.03336C7.04722 2.92623 7.19719 2.85125 7.3793 2.48703C7.61496 2.04783 7.57212 1.70504 7.26146 1.33011C6.99365 1.01946 6.95081 0.998031 6.22237 1.00874C5.78317 1.00874 5.23685 1.09444 4.95833 1.19085ZM43.7581 41.4046C45.9541 42.5508 45.8577 45.6467 43.5867 46.6965C41.6692 47.5963 39.4517 46.1608 39.4517 44.0291C39.4517 42.283 40.6622 41.0832 42.4297 41.0618C42.9654 41.0618 43.201 41.1261 43.7581 41.4046Z" fill="#2F2F2F"/>
</svg>
