<svg width="200" height="201" viewBox="0 0 200 201" fill="none" xmlns="http://www.w3.org/2000/svg">
<path d="M91.8454 0.859601C37.066 5.48531 -4.10111 53.7909 0.326179 108.242C1.77991 125.82 7.00014 141.151 16.3833 155.358C32.1101 179.148 55.502 194.413 83.9159 199.501C91.8454 200.889 108.365 200.889 116.295 199.501C159.312 191.835 191.294 159.852 198.959 116.833C200.347 108.903 200.347 92.3826 198.959 84.4528C192.682 49.1652 169.488 20.4197 136.977 7.53384C123.233 2.11515 106.449 -0.395949 91.8454 0.859601ZM87.5503 36.6758C87.5503 48.0419 88.2771 50.6851 92.1097 53.9231C94.0921 55.5752 97.8586 57.0289 100.105 57.0289C102.352 57.0289 106.118 55.5752 108.101 53.9231C111.933 50.6851 112.66 48.0419 112.66 36.6758C112.66 31.191 112.858 26.6314 113.189 26.6314C113.453 26.6314 116.493 27.3583 119.929 28.2835C144.973 34.9577 165.722 55.7734 172.462 80.8844C173.387 84.3206 174.114 87.2943 174.114 87.5586C174.114 87.889 169.554 88.0873 164.07 88.0873C152.704 88.0873 150.061 88.8142 146.823 92.6469C145.171 94.6294 143.717 98.396 143.717 100.643C143.717 102.89 145.171 106.656 146.823 108.639C150.061 112.471 152.704 113.198 164.07 113.198C169.554 113.198 174.114 113.397 174.114 113.661C174.114 113.991 173.387 116.965 172.462 120.401C165.722 145.512 144.973 166.262 119.863 173.002C116.427 173.927 113.453 174.654 113.189 174.654C112.858 174.654 112.66 170.095 112.66 164.544C112.66 153.244 111.933 150.6 108.101 147.362C106.118 145.71 102.352 144.257 100.105 144.257C97.8586 144.257 94.0921 145.71 92.1097 147.362C88.2771 150.6 87.5503 153.244 87.5503 164.544C87.5503 170.095 87.352 174.654 87.0877 174.654C86.7573 174.654 83.7838 173.927 80.3477 173.002C55.2377 166.262 34.4229 145.512 27.7489 120.467C26.8238 117.031 26.0969 113.991 26.0969 113.661C26.0969 113.397 30.6564 113.198 36.207 113.198C47.5065 113.198 50.1496 112.471 53.3875 108.639C55.0395 106.656 56.4932 102.89 56.4932 100.643C56.4932 98.396 55.0395 94.6294 53.3875 92.6469C50.1496 88.8142 47.5065 88.0873 36.1409 88.0873H26.0309L26.4934 85.5762C27.3524 80.8183 30.7225 71.3687 33.4978 66.0821C43.2774 47.381 60.524 33.5039 81.1406 28.0191C83.7838 27.2922 86.2948 26.6975 86.7573 26.6975C87.352 26.6314 87.5503 29.0764 87.5503 36.6758Z" fill="#2F2F2F"/>
<path d="M95.1495 89.3429C84.9733 94.0346 85.2376 107.846 95.612 112.207C98.7177 113.463 101.493 113.463 104.599 112.207C115.171 107.78 115.171 93.506 104.599 89.0785C101.361 87.7569 98.3873 87.823 95.1495 89.3429Z" fill="#2F2F2F"/>
</svg>
