<svg width="40" height="40" viewBox="0 0 40 40" fill="none" xmlns="http://www.w3.org/2000/svg">
<path d="M21.9184 0.0238876C21.1103 0.143562 20.0927 0.412828 19.4642 0.672123C17.9876 1.28047 17.6584 1.56968 11.1936 8.09192C0.957745 18.4138 1.45657 17.8753 0.768191 19.3413C0.19953 20.528 0 21.4655 0 22.9016C0 23.859 0.0498826 24.3377 0.209507 24.946C1.08744 28.257 3.77112 30.7502 7.06337 31.3286C8.63966 31.5979 10.206 31.4483 11.7024 30.8699C13.2388 30.2815 13.4384 30.092 21.7288 21.7846C30.1889 13.2977 30.1091 13.3975 30.7476 11.6422C31.9448 8.37115 31.2065 4.99036 28.7623 2.54702C27.625 1.41011 26.338 0.672123 24.8315 0.273209C24.0833 0.0737514 22.497 -0.0558949 21.9184 0.0238876ZM24.0534 3.00577C25.6396 3.38474 27.0862 4.54158 27.8345 6.02754C28.3532 7.07469 28.4929 7.74287 28.4331 8.98947C28.3732 10.1363 28.1537 10.8145 27.5551 11.7021C27.3356 12.0212 25.7394 13.7066 23.9935 15.4419L20.821 18.6133L16.7506 14.5443L12.6801 10.4754L16.0522 7.13452C19.6737 3.5443 19.8732 3.38474 21.2699 3.01574C21.9882 2.82626 23.2552 2.82626 24.0534 3.00577ZM15.4835 24.0086C13.6977 25.7638 12.0017 27.3594 11.7024 27.5589C9.5575 28.995 6.47476 28.7257 4.64905 26.9406C2.85328 25.1754 2.41432 22.5326 3.53168 20.2189C3.81103 19.6405 4.25997 19.1518 7.24295 16.14L10.6449 12.7293L14.6854 16.7783L18.7259 20.8272L15.4835 24.0086Z" fill="white"/>
<path d="M29.0494 21.055C25.4778 21.5536 22.5248 24.0568 21.4273 27.5074C19.8211 32.6135 22.8939 38.0387 28.1116 39.3252C29.3587 39.6244 31.2343 39.6244 32.4813 39.3252C36.4121 38.3579 39.1955 35.0868 39.5746 30.978C39.7442 29.123 39.006 26.6198 37.7788 24.8945C37.28 24.1964 36.0928 23.0296 35.4044 22.5609C34.6462 22.0523 33.3493 21.4738 32.4314 21.2544C31.4438 21.0151 29.9573 20.9353 29.0494 21.055ZM31.7431 24.0069C32.3416 24.1765 33.6386 24.735 33.6386 24.8347C33.6386 24.9344 24.8692 33.6706 24.8293 33.6208C24.7096 33.4911 24.3106 32.6235 24.141 32.1248C23.8417 31.2572 23.7519 30.3397 23.8716 29.4621C24.4003 25.6425 28.1715 23.0296 31.7431 24.0069ZM36.6016 28.754C37.3 31.4367 35.7237 34.628 33.05 35.9744C31.3639 36.8121 29.4285 36.8121 27.6527 35.9544L26.9144 35.6054L31.354 31.1674L35.7835 26.7295L36.1128 27.4276C36.2923 27.8166 36.5118 28.4149 36.6016 28.754Z" fill="white"/>
</svg>
