<svg width="23" height="24" viewBox="0 0 23 24" fill="none" xmlns="http://www.w3.org/2000/svg">
<path d="M9.01487 1.45758C7.66345 2.25128 6.55826 2.92243 6.56399 2.95745C6.56399 2.98663 7.6749 3.66362 9.03205 4.46316L11.5058 5.91634L13.9739 4.46316C15.331 3.66362 16.442 2.98663 16.442 2.95745C16.442 2.90493 11.586 0.0102285 11.5001 0.0102285C11.4829 0.0102285 10.3663 0.658034 9.01487 1.45758Z" fill="white"/>
<path d="M6.06 6.62834V9.56389L8.52806 11.0171C9.8852 11.8166 11.019 12.4819 11.0477 12.4878C11.0763 12.4994 11.0935 11.2914 11.0877 9.55222L11.0706 6.58749L8.60823 5.14014C7.25681 4.3406 6.12871 3.68696 6.10581 3.68696C6.07718 3.68696 6.06 5.01175 6.06 6.62834Z" fill="white"/>
<path d="M14.3918 5.14015L11.9294 6.59334L11.9122 9.54639C11.9065 11.1688 11.9122 12.4995 11.9294 12.4995C11.9466 12.4995 13.0804 11.84 14.449 11.0346L16.94 9.56974V6.62835C16.94 5.01176 16.9228 3.68697 16.8999 3.68697C16.8713 3.6928 15.7489 4.34645 14.3918 5.14015Z" fill="white"/>
<path d="M2.99629 11.7116C1.61051 12.5228 0.482422 13.2115 0.482422 13.2348C0.493875 13.2873 5.48726 16.2345 5.5617 16.2345C5.59033 16.2345 6.46646 15.7326 7.50866 15.114C8.55658 14.5012 9.70186 13.8242 10.0569 13.62C10.6238 13.2873 10.6868 13.2348 10.6009 13.1706C10.3833 13.0189 5.59606 10.2234 5.55597 10.2234C5.53307 10.2234 4.38207 10.8945 2.99629 11.7116Z" fill="white"/>
<path d="M14.9072 11.6882C13.5558 12.4936 12.4105 13.1648 12.3705 13.1939C12.3247 13.2231 13.2122 13.7717 14.85 14.7347C16.2529 15.5576 17.4211 16.2345 17.4497 16.2345C17.5299 16.2345 22.5061 13.2873 22.5176 13.2348C22.5233 13.1823 17.5127 10.2234 17.4268 10.2292C17.3982 10.2292 16.2644 10.8887 14.9072 11.6882Z" fill="white"/>
<path d="M0.00148959 16.9757L0.0186687 19.993L2.42374 21.4111C3.74653 22.1873 4.89752 22.8643 4.98915 22.9168L5.14376 23.0102V19.9813V16.9465L2.60126 15.4525C1.20402 14.6296 0.0473004 13.9585 0.024395 13.9585C0.00721595 13.9585 -0.00423676 15.3183 0.00148959 16.9757Z" fill="white"/>
<path d="M8.48215 15.47L5.94537 16.9641V19.9872C5.94537 21.6504 5.96828 23.0044 5.99691 22.9927C6.01982 22.9811 7.18227 22.3041 8.57377 21.487L11.0991 19.9988V16.9757C11.0991 15.3183 11.0819 13.9585 11.059 13.9643C11.0304 13.9702 9.87365 14.6413 8.48215 15.47Z" fill="white"/>
<path d="M11.9008 16.9757V19.9988L14.4319 21.487C15.8234 22.3041 16.9801 22.9811 17.0087 22.9927C17.0316 23.0044 17.0545 21.6504 17.0545 19.9872V16.9641L14.5292 15.4759C13.1377 14.6588 11.981 13.976 11.9524 13.9702C11.9237 13.9585 11.9008 15.2774 11.9008 16.9757Z" fill="white"/>
<path d="M20.3931 15.4583L17.8563 16.9524V19.9813V23.0102L18.0739 22.8877C18.1885 22.8176 19.3452 22.1406 20.6336 21.382L22.9814 19.9988L22.9986 16.9757C23.0043 15.3183 22.9929 13.9585 22.97 13.9585C22.9413 13.9643 21.7846 14.6354 20.3931 15.4583Z" fill="white"/>
</svg>
