<svg width="500" height="500" viewBox="0 0 500 500" fill="none" xmlns="http://www.w3.org/2000/svg">
<path d="M107.696 4.71605C79.9563 22.3393 51.7074 50.7599 32.8748 80.0493C13.5332 109.835 -2.88173 153.273 0.426704 165.311C2.20817 171.765 6.40733 176.108 12.1335 177.474C22.3133 179.708 31.9841 173.75 34.529 163.698C41.4004 137.387 51.5801 114.427 66.2136 93.0805C81.4833 70.493 98.1527 53.7385 121.566 37.2322C133.527 28.7929 137.727 23.4563 137.727 16.6304C137.727 8.56338 128.183 -3.58169e-05 119.149 -3.58169e-05C116.731 -3.58169e-05 112.277 1.86158 107.696 4.71605Z" fill="#2F2F2F"/>
<path d="M372.498 1.73748C367.408 3.97142 364.736 7.0741 362.954 13.1554C361.555 17.6232 361.682 18.9884 363.972 23.8286C365.881 28.1724 368.553 30.7786 376.57 36.2393C420.725 66.5216 449.483 107.973 465.388 164.07C467.933 173.378 473.787 178.094 482.44 178.094C490.074 178.094 495.673 174.247 498.473 166.924C500.509 161.712 500.509 160.967 498.473 152.404C485.875 101.644 453.3 51.6287 411.436 18.8643C389.04 1.36516 381.023 -2.10985 372.498 1.73748Z" fill="#2F2F2F"/>
<path d="M238.252 39.2179C207.713 41.8241 178.955 50.884 155.287 65.2804C119.912 86.8751 92.045 121.749 79.3202 160.471C71.1764 185.292 71.1764 184.672 70.6674 278.249L70.1584 363.635H52.2165C36.4379 363.635 33.5112 364.007 28.5485 366.241C18.496 371.081 15.8238 382.499 22.6951 392.055C27.5305 398.757 16.0783 398.385 249.959 398.385C453.809 398.385 466.916 398.261 470.988 396.151C480.531 391.435 483.458 381.134 477.605 371.95C473.278 365.124 467.807 363.635 446.938 363.635H429.251L428.742 277.628C428.36 194.973 428.233 191.249 425.56 179.832C417.417 144.709 403.419 118.647 379.37 93.8251C363.845 77.8153 349.212 67.2661 329.234 57.7099C312.056 49.3947 297.041 44.5545 279.608 41.5759C268.283 39.7143 247.032 38.4732 238.252 39.2179ZM266.247 74.4644C298.44 78.5599 326.816 91.8394 349.466 113.558C366.645 129.94 378.479 148.308 385.859 169.779C393.24 191.498 393.494 195.221 393.494 283.213V363.635H249.705H105.788L106.169 277.628L106.678 191.746L109.987 179.832C114.568 163.201 120.039 151.287 128.565 138.256C158.468 93.2046 213.184 67.7626 266.247 74.4644Z" fill="#2F2F2F"/>
<path d="M187.735 417.125C181.5 421.096 179.209 426.929 180.1 437.603C182.263 461.307 197.278 482.53 219.674 493.203C232.271 499.036 240.034 500.649 254.667 499.781C281.134 498.539 302.512 484.888 313.964 462.052C318.163 453.613 319.309 450.013 320.963 439.588C322.744 429.412 321.09 423.454 315.237 418.366C304.294 409.058 286.606 417.249 286.606 431.521C286.606 433.507 285.715 438.099 284.57 441.822C281.771 450.882 270.827 461.68 261.793 464.286C244.996 468.878 228.2 462.672 219.801 448.772C217.893 445.67 216.111 439.961 215.348 434.5C213.821 424.075 212.93 422.089 207.585 417.746C202.623 413.65 193.716 413.278 187.735 417.125Z" fill="#2F2F2F"/>
</svg>
