<svg width="36" height="37" viewBox="0 0 36 37" fill="none" xmlns="http://www.w3.org/2000/svg">
<path d="M24.3311 0.0824928C22.8271 0.27276 20.7341 1.13349 19.52 2.05765C18.3603 2.94557 17.1643 4.35898 16.521 5.64555C16.1677 6.33414 15.7509 7.59353 15.5969 8.40896C15.4338 9.25158 15.4066 11.0727 15.5425 11.9153C15.7872 13.4375 16.4939 15.1408 17.3637 16.3277L17.8257 16.9529L25.065 9.71365C29.0425 5.73616 32.3042 2.44725 32.3042 2.41101C32.3042 2.30228 31.0267 1.43249 30.3743 1.10631C28.5804 0.191217 26.3606 -0.180258 24.3311 0.0824928Z" fill="#E4A2A2"/>
<path d="M26.2881 10.9368L19.0489 18.176L19.7193 18.6472C20.6073 19.2814 22.0026 19.9428 23.0626 20.2327C24.2133 20.5589 26.2337 20.6405 27.475 20.423C30.7367 19.8522 33.5364 17.7321 34.9679 14.7422C36.2907 11.9788 36.3451 8.90729 35.1129 6.1167C34.7595 5.31033 33.8082 3.78819 33.6179 3.72477C33.5636 3.70665 30.2747 6.95026 26.2881 10.9368Z" fill="#E4A2A2"/>
<path d="M7.61471 18.1035C6.79021 18.2304 5.61237 18.62 4.8513 19.0186C4.14459 19.3901 3.31104 19.9609 3.31104 20.0787C3.31104 20.1149 6.14693 22.978 9.61704 26.439L15.914 32.736L16.1677 32.4461C16.6026 31.9296 17.1915 30.7971 17.4996 29.9001C19.1938 24.926 16.2855 19.6257 11.1211 18.2757C10.3147 18.0582 8.47544 17.9767 7.61471 18.1035Z" fill="#E4A2A2"/>
<path d="M1.63487 21.7911C1.11842 22.4978 0.520441 23.7935 0.257691 24.7629C-0.0684822 26.0042 -0.0866029 27.8797 0.212389 29.1028C1.19091 33.0531 4.49794 35.7894 8.56604 36.0159C9.68046 36.0702 10.8311 35.9071 11.9818 35.5085C12.7791 35.2367 13.9026 34.6296 14.3918 34.2219L14.6818 33.9682L8.38483 27.6713C4.92378 24.2012 2.0607 21.3653 2.02446 21.3653C1.98822 21.3653 1.80701 21.5555 1.63487 21.7911Z" fill="#E4A2A2"/>
</svg>
