<svg width="500" height="501" viewBox="0 0 500 501" fill="none" xmlns="http://www.w3.org/2000/svg">
<path d="M19.1125 1.82156C11.8316 4.32614 5.72076 9.3353 2.73036 15.4715L0 20.9816L0.260034 252.029L0.650086 483.077L4.42058 488.336C6.50086 491.216 10.9214 495.099 14.1719 496.977L20.1527 500.358H167.722H315.292L321.402 496.852C341.295 485.581 340.645 457.906 320.232 448.263L313.991 445.257L185.665 444.882L57.2076 444.631V250.526V56.4214L185.665 56.1709L313.991 55.7953L320.232 52.7898C332.324 47.1545 338.695 33.1288 334.924 20.9816C332.454 13.0922 327.513 6.95595 320.752 3.44954L315.292 0.6945L169.672 0.444042C50.3166 0.193584 23.1431 0.444042 19.1125 1.82156Z" fill="#585858"/>
<path d="M389.141 157.982C378.87 162.866 373.149 172.008 373.149 183.153C373.279 192.67 376.53 198.431 389.271 210.453C395.382 216.214 400.453 221.473 400.453 221.974C400.453 222.6 355.337 222.976 300.34 222.976C190.865 222.976 195.026 222.725 186.835 230.239C180.854 235.624 178.123 242.011 178.123 250.151C178.253 262.924 185.794 273.193 197.496 276.699C201.006 277.701 231.3 278.077 302.29 278.077H402.143L389.661 290.474C378.87 301.119 376.92 303.749 375.099 310.01C367.949 333.303 392.262 353.089 415.275 342.57C421.126 339.94 493.545 268.684 497.316 262.047C501.216 254.909 500.826 243.889 496.405 236.751C491.335 228.611 419.175 159.735 413.195 157.231C406.304 154.476 395.772 154.851 389.141 157.982Z" fill="#585858"/>
</svg>
