<svg width="32" height="30" viewBox="0 0 32 30" fill="none" xmlns="http://www.w3.org/2000/svg">
<path d="M12.514 2.99431L9.21045 5.98861L9.17667 5.15648C9.14289 4.29025 9.08884 4.12655 8.79834 3.89465C8.62945 3.75823 8.53487 3.75141 7.00806 3.75141H5.40695L5.19752 3.92875C5.08267 4.02424 4.96107 4.21522 4.92053 4.35164C4.88 4.50169 4.85297 5.66122 4.85297 7.27091V9.94464L2.45467 12.1136C1.00218 13.43 0.0361063 14.3508 0.00908324 14.4463C-0.0179399 14.5486 0.015839 14.6714 0.103664 14.7874L0.23878 14.9715L1.8399 14.992L3.43426 15.0056V21.9901C3.43426 28.9472 3.43426 28.9677 3.57613 29.1518L3.71125 29.3292H7.51475C11.2912 29.3292 11.3182 29.3292 11.4466 29.1859C11.5682 29.0495 11.575 28.8585 11.6087 25.4482C11.6425 21.9764 11.6493 21.8468 11.7912 21.4649C12.0817 20.7009 12.3721 20.2303 12.9261 19.671C13.3652 19.2277 13.5882 19.0571 14.0476 18.8389C15.3514 18.2045 16.6418 18.2045 17.9524 18.8389C18.6956 19.1936 19.4995 19.9848 19.8711 20.7146C20.3777 21.6968 20.3913 21.8332 20.3913 25.6119C20.3913 28.9063 20.3913 28.9745 20.5331 29.1518L20.6682 29.3292H24.4785H28.2888L28.4239 29.1518C28.5657 28.9677 28.5657 28.9472 28.5657 21.9901V15.0056L30.1601 14.992L31.7612 14.9715L31.8963 14.7874C31.9842 14.6714 32.0179 14.5555 31.9909 14.4463C31.9639 14.344 29.694 12.2432 25.8161 8.73055C22.445 5.67486 18.905 2.45547 17.9389 1.58242C16.5405 0.320581 16.1554 7.62939e-06 16 7.62939e-06C15.8514 7.62939e-06 15.1893 0.56613 12.514 2.99431Z" fill="white"/>
</svg>
