<svg width="21" height="36" viewBox="0 0 21 36" fill="none" xmlns="http://www.w3.org/2000/svg">
<path d="M9.3127 0.152464C8.87747 0.419244 8.87747 0.403999 8.87747 3.31571V5.98351L9.77795 6.11309C12.0066 6.44085 19.7433 7.54608 19.8033 7.54608C19.8408 7.54608 19.8709 6.13596 19.8709 4.10843C19.8709 1.00616 19.8559 0.647913 19.7433 0.449733C19.4731 -0.00760412 19.5932 1.81198e-05 14.3404 1.81198e-05C9.73293 1.81198e-05 9.54533 0.00764036 9.3127 0.152464Z" fill="#E4A2A2"/>
<path d="M8.17188 6.95147C7.77416 7.17251 7.79668 6.76091 7.78917 16.3116V25.2068L4.17224 27.242C2.17617 28.3625 0.427729 29.3457 0.277649 29.4372L0 29.5973L1.36573 32.7986L2.73146 36L2.94908 35.9771C3.07665 35.9619 7.05378 35.2454 11.8038 34.3917C20.8387 32.7682 20.6811 32.7986 20.8987 32.3718C21.0338 32.105 21.0338 9.17718 20.8987 8.91039C20.6961 8.49879 20.6511 8.49117 14.4753 7.6451C11.241 7.203 8.53957 6.84476 8.47204 6.84476C8.4045 6.85238 8.26943 6.89811 8.17188 6.95147Z" fill="#E4A2A2"/>
</svg>
