<svg width="34" height="34" viewBox="0 0 34 34" fill="none" xmlns="http://www.w3.org/2000/svg">
<path d="M24.756 0.0551033C23.7361 0.364365 23.1975 1.45037 23.614 2.36377C23.7146 2.58673 24.1599 3.09018 25.0504 3.982L26.336 5.27658L25.151 6.46328L23.966 7.64997L21.7251 5.40604C20.1666 3.85254 19.391 3.12613 19.1971 3.04702C18.5578 2.78091 17.7463 2.96791 17.2938 3.47855C16.9778 3.84535 16.8557 4.14742 16.8557 4.59333C16.8557 5.11835 17.0137 5.42761 17.5595 5.98141L18.0407 6.46328L11.2824 13.2454C7.56208 16.971 4.42351 20.1643 4.3086 20.3441C3.69812 21.2646 3.4252 22.1421 3.4252 23.2137C3.4252 24.4148 3.77713 25.4001 4.5097 26.2991L4.87598 26.7594L2.54181 29.1041C0.27227 31.3911 0.20045 31.4703 0.0855365 31.873C-0.0724693 32.4196 -0.0150126 32.8224 0.286635 33.2683C0.71756 33.9156 1.51477 34.1601 2.31916 33.894C2.62799 33.7861 2.944 33.5056 4.96935 31.4846C6.24058 30.2188 7.29634 29.1904 7.32507 29.1904C7.3538 29.1904 7.56208 29.3414 7.78473 29.5212C9.37197 30.8158 11.6056 30.9812 13.4155 29.9383C13.7889 29.7226 15.132 28.4208 20.7125 22.8397L27.5498 16L28.11 16.5394C28.8426 17.2443 29.2089 17.3665 29.8768 17.1364C30.3077 16.9925 30.8177 16.5394 30.9685 16.1582C31.1193 15.7771 31.1193 15.1945 30.9685 14.8349C30.8895 14.6407 30.1641 13.864 28.6128 12.3033L26.3719 10.0593L27.557 8.87263L28.742 7.68594L30.0707 9.01648C30.8967 9.84357 31.5 10.383 31.6651 10.4549C32.2972 10.7138 33.0872 10.5052 33.6115 9.92268C34.0496 9.44081 34.1214 8.73598 33.8054 8.11746C33.7336 7.98081 31.9309 6.13244 29.805 4.01077C26.1852 0.393131 25.9195 0.148602 25.6035 0.0694885C25.2228 -0.016819 25.0217 -0.0240097 24.756 0.0551033ZM22.6373 11.4258L25.0074 13.7992L18.4717 20.3441C11.584 27.2485 11.5769 27.2485 10.9448 27.2485C10.2769 27.2485 10.162 27.1694 8.58194 25.6087C7.76318 24.796 7.03779 24.0192 6.97315 23.8754C6.90133 23.7315 6.82951 23.4439 6.81515 23.2425C6.75769 22.588 6.95879 22.3003 8.5963 20.6677L10.0327 19.2293L10.7294 19.9269C11.584 20.7684 11.7851 20.8763 12.4028 20.8763C13.5519 20.8763 14.3348 19.8694 14.0188 18.7906C13.9182 18.431 13.8105 18.2871 13.1569 17.6182L12.41 16.8487L13.9326 15.324L15.4552 13.7992L16.1375 14.4825C17.0999 15.4534 17.5739 15.662 18.3065 15.439C18.6584 15.3312 19.1899 14.878 19.3694 14.5113C19.549 14.166 19.5633 13.4612 19.3981 13.1304C19.3335 13.0009 18.9529 12.5694 18.5578 12.1594L17.8253 11.4258L19.0103 10.2391C19.6639 9.58465 20.2097 9.05244 20.2313 9.05244C20.2528 9.05244 21.3373 10.1241 22.6373 11.4258Z" fill="#E4A2A2"/>
</svg>
