<svg width="22" height="32" viewBox="0 0 22 32" fill="none" xmlns="http://www.w3.org/2000/svg">
<path d="M10.2727 0.52717C10.0798 0.821566 9.56315 1.62944 9.11537 2.32777C5.13362 8.52375 1.93719 14.4938 0.731637 18.006C0.11164 19.8066 -0.0399148 20.6761 0.00830717 22.0454C0.0978623 24.558 1.07608 26.831 2.83963 28.6658C4.96828 30.884 7.58605 32 10.6654 32C12.6562 32 14.2476 31.5961 15.9353 30.665C16.8378 30.172 17.4164 29.7202 18.3189 28.8301C19.7724 27.3718 20.668 25.7493 21.1433 23.7022C21.3431 22.8258 21.3982 21.1759 21.2466 20.368C20.6955 17.4514 18.56 12.8301 14.902 6.68207C13.4347 4.21053 10.7618 0 10.6585 0C10.6309 0 10.4587 0.239622 10.2727 0.52717ZM17.5404 17.7116C18.4222 20.0257 18.5531 22.6752 17.8918 24.6607C17.4027 26.1463 16.5416 27.3992 15.3911 28.3166C14.3096 29.1724 12.8009 29.7544 11.4576 29.8228L10.8376 29.8502L11.3129 29.7133C13.2762 29.1314 14.7367 27.7963 15.77 25.6397C16.7138 23.6748 17.2787 20.8746 17.2787 18.1566C17.2787 17.6226 17.2924 17.1844 17.3062 17.1844C17.32 17.1844 17.4233 17.424 17.5404 17.7116Z" fill="#E4A2A2"/>
</svg>
