<svg width="22" height="23" viewBox="0 0 22 23" fill="none" xmlns="http://www.w3.org/2000/svg">
<path d="M7.71874 0.708036C7.50009 0.810383 7.17445 1.15464 6.72784 1.75476C5.67647 3.169 5.7509 3.08526 5.54621 3.13644C5.44386 3.169 5.01121 3.26204 4.58322 3.35044C3.15502 3.64817 2.7782 3.78773 2.5549 4.11338C2.35021 4.40647 2.28508 4.77398 2.20599 6.09053C2.12691 7.37451 2.21064 7.18843 1.38257 7.99324C0.456797 8.89575 0.0846286 9.35166 0.019499 9.668C-0.0595869 10.0634 0.0753244 10.4077 0.922009 11.9289C1.14066 12.3197 1.32209 12.6872 1.32209 12.7384C1.32209 12.7896 1.21509 13.3013 1.08948 13.8782C0.959226 14.455 0.838271 15.0877 0.824314 15.2831C0.763837 16.06 0.954574 16.2554 2.6712 17.1765C3.14107 17.4277 3.56441 17.6882 3.61093 17.7487C3.6621 17.8138 3.85284 18.2837 4.03892 18.7908C4.57857 20.2702 4.71813 20.5214 5.10891 20.7028C5.3136 20.8005 5.41595 20.8145 5.88116 20.8145C6.17424 20.8145 6.79763 20.7819 7.26749 20.74C7.7327 20.6982 8.16069 20.6749 8.22117 20.6935C8.277 20.7075 8.74221 21.0331 9.24929 21.4146C10.3658 22.252 10.6217 22.3962 11.0078 22.3962C11.4032 22.3962 11.7335 22.2101 12.9105 21.2983C13.1896 21.0843 13.5013 20.8563 13.6037 20.7865L13.7897 20.6609L14.7574 20.74C15.2877 20.7819 15.9297 20.8145 16.1902 20.8145C16.6089 20.8145 16.6834 20.8005 16.9113 20.6842C17.3067 20.4842 17.451 20.2143 18.1162 18.3768C18.2279 18.0744 18.3628 17.7766 18.4139 17.7162C18.4698 17.6557 18.9117 17.3952 19.3955 17.1346C20.6656 16.4554 20.9633 16.2368 21.1122 15.8739C21.2471 15.5576 21.1959 15.1017 20.8796 13.7386C20.633 12.664 20.6237 12.7384 21.1215 11.8359C21.9402 10.3658 22.0612 10.0541 21.9775 9.67266C21.903 9.3377 21.7123 9.10044 20.7726 8.15141C20.2981 7.67225 19.8933 7.2303 19.8794 7.16517C19.8608 7.10469 19.8235 6.64878 19.791 6.15101C19.7072 4.73211 19.6468 4.38786 19.4235 4.08082C19.2048 3.77843 18.8512 3.64817 17.4044 3.34578C16.1623 3.08992 16.3577 3.22018 15.5157 2.09437C14.5527 0.805731 14.3433 0.624298 13.8549 0.624298C13.5432 0.624298 13.2175 0.721992 12.1196 1.13603C11.58 1.34072 11.0776 1.5082 10.9985 1.5082C10.9194 1.5082 10.4961 1.36864 10.0541 1.20116C8.86316 0.745253 8.58869 0.661514 8.23048 0.638254C7.97926 0.624298 7.86296 0.642906 7.71874 0.708036ZM11.6963 7.01165V7.43964L12.0406 7.51873C12.8407 7.70016 13.4734 8.13281 13.7432 8.69106C13.8735 8.95158 14.0131 9.42144 14.0875 9.84478L14.12 10.0216H13.3013C12.6872 10.0216 12.4779 10.0076 12.4639 9.96109C12.4546 9.93317 12.436 9.82617 12.4174 9.73313C12.3709 9.44005 12.1289 9.13301 11.8173 8.97484C11.5521 8.83993 11.5149 8.83527 10.9566 8.83527C10.2355 8.83527 10.0215 8.89575 9.75637 9.16092C9.58424 9.3284 9.55633 9.38422 9.55633 9.5517C9.55633 9.82617 9.65402 9.98435 9.91454 10.1239C10.0355 10.189 10.6635 10.3937 11.3009 10.5752C13.0315 11.0636 13.4129 11.2265 13.7991 11.6405C14.5946 12.4918 14.5201 13.8503 13.6269 14.7435C13.2222 15.1482 12.5569 15.4692 11.8731 15.5808L11.6963 15.6087V16.0228V16.4415H10.9985H10.3007V16.0042V15.5669L10.082 15.5343C9.14694 15.3948 8.44447 14.8598 8.03509 13.9805C7.90018 13.6967 7.64896 12.864 7.64896 12.7151C7.64896 12.6919 8.02578 12.6733 8.48169 12.6733H9.31907L9.37024 12.9384C9.44933 13.3106 9.60285 13.5944 9.84476 13.8223C10.1611 14.1108 10.4356 14.1852 11.1613 14.1852C11.6963 14.1852 11.794 14.1712 12.008 14.0736C12.2639 13.9619 12.5523 13.6828 12.6267 13.4827C12.6965 13.306 12.6825 13.1013 12.5942 12.9198C12.4825 12.6826 12.1569 12.5477 10.845 12.1894C9.24929 11.7521 8.87712 11.5847 8.45378 11.1241C8.08161 10.7194 7.90018 10.1844 7.94204 9.60287C8.01648 8.53754 8.79338 7.73738 9.99828 7.49081L10.2774 7.43034L10.2914 7.007L10.3053 6.579H10.9985H11.6963V7.01165Z" fill="white"/>
</svg>
