<svg width="23" height="20" viewBox="0 0 23 20" fill="none" xmlns="http://www.w3.org/2000/svg">
<path fill-rule="evenodd" clip-rule="evenodd" d="M9.09317 16.2378C4.07115 16.2378 0 12.6028 0 8.1189C0 3.63495 4.07115 0 9.09317 0C14.1152 0 18.1863 3.63495 18.1863 8.1189C18.1863 9.99507 17.4736 11.7226 16.2766 13.0974L22.4 18.5648L20.7926 20L14.6692 14.5327C13.1294 15.6014 11.1945 16.2378 9.09317 16.2378ZM15.9134 8.1189C15.9134 11.4819 12.8601 14.2081 9.09356 14.2081C5.32705 14.2081 2.27369 11.4819 2.27369 8.1189C2.27369 4.75594 5.32705 2.02972 9.09356 2.02972C12.8601 2.02972 15.9134 4.75594 15.9134 8.1189Z" fill="#2F2F2F"/>
</svg>
