<svg width="19" height="19" viewBox="0 0 19 19" fill="none" xmlns="http://www.w3.org/2000/svg">
<path d="M8.74126 0.0284672C5.64165 0.261978 2.81278 2.06001 1.24897 4.79207C-1.13176 8.94855 -0.0207566 14.2726 3.83042 17.1401C5.08614 18.0741 6.50058 18.6579 8.14842 18.9194C8.82062 19.0269 10.1417 19.0269 10.8559 18.9194C14.1936 18.4197 16.9291 16.3088 18.2548 13.2171C19.2445 10.9054 19.2492 8.11726 18.2642 5.81952C16.6303 2.00396 12.8632 -0.284437 8.74126 0.0284672ZM10.2397 1.85452C11.5841 1.99929 12.7138 2.41027 13.8435 3.16217C14.4597 3.56848 15.4493 4.56323 15.8648 5.18904C16.2149 5.72145 16.6257 6.55741 16.8077 7.09448C17.1158 8.02386 17.2512 9.17739 17.1672 10.1021C17.0551 11.251 16.8638 11.9375 16.3643 12.9416C15.622 14.436 14.4223 15.641 12.9099 16.3975C11.6728 17.0187 10.2211 17.2989 8.90465 17.1775C7.77497 17.07 7.09809 16.8786 6.07111 16.3742C4.55398 15.6269 3.31227 14.3707 2.57471 12.8248C2.1359 11.9048 1.93984 11.1903 1.83715 10.1021C1.75312 9.17739 1.8885 8.02386 2.19659 7.09448C2.37865 6.55274 2.79411 5.71677 3.13955 5.19371C3.53167 4.60527 4.29257 3.816 4.92743 3.33497C5.49227 2.90998 6.4819 2.40093 7.16811 2.18143C8.18109 1.85919 9.24075 1.74243 10.2397 1.85452Z" fill="white"/>
<path d="M9.08731 5.08167C8.9566 5.14705 8.83523 5.25446 8.7512 5.39457L8.61583 5.60473V7.25331V8.90189H7.20606C6.37514 8.90189 5.72161 8.92057 5.61891 8.94859C4.97005 9.13073 4.76465 10.0181 5.25947 10.4757C5.51621 10.7093 5.61424 10.7233 7.16872 10.7233H8.61583V12.1944C8.61583 13.3292 8.62983 13.7029 8.68118 13.8196C8.79322 14.0952 9.19934 14.366 9.50277 14.366C9.80619 14.366 10.2123 14.0952 10.3244 13.8196C10.3757 13.7029 10.3897 13.3292 10.3897 12.1944V10.7233H11.9208C13.3026 10.7233 13.466 10.7139 13.634 10.6345C14.3249 10.3216 14.3342 9.36424 13.648 9.02332L13.4053 8.90189H11.8975H10.3897V7.25331V5.60473L10.2543 5.3899C10.0116 5.00227 9.5121 4.87151 9.08731 5.08167Z" fill="white"/>
</svg>
