<svg width="50" height="50" viewBox="0 0 50 50" fill="none" xmlns="http://www.w3.org/2000/svg">
<path d="M39.8828 2.18264C39.528 2.26861 38.8722 2.51579 38.4315 2.73073C37.6467 3.10688 37.3027 3.44003 27.9713 12.7469C22.6606 18.0452 18.1347 22.6127 17.8982 22.9136C17.1134 23.9345 16.7587 24.848 15.8556 28.1366C14.8881 31.6939 14.8236 32.2097 15.2536 33.1232C15.6191 33.9077 15.9954 34.3054 16.7372 34.6708C17.7692 35.1866 18.167 35.1544 21.8221 34.1549C23.5422 33.6821 25.1762 33.1984 25.4665 33.0695C26.7565 32.5214 27.3371 31.9733 37.1522 22.1398C46.6233 12.6502 46.9028 12.36 47.2898 11.5648C48.5691 8.91025 48.0961 5.96558 46.0643 3.94514C44.441 2.3116 42.0974 1.64529 39.8828 2.18264Z" fill="white"/>
<path d="M9.26732 6.15559C7.63565 6.52298 6.54427 7.12808 5.31242 8.3599C4.28588 9.38641 3.73479 10.2616 3.28095 11.5907L3 12.4227V26.5238V40.6248L3.28095 41.4568C3.73479 42.7859 4.28588 43.6611 5.31242 44.6876C6.33897 45.7142 7.21423 46.2652 8.54333 46.7191L9.37537 47H23.4768H37.5783L38.4103 46.7191C39.7394 46.2652 40.6147 45.7142 41.6412 44.6876C42.6678 43.6611 43.2189 42.7859 43.6727 41.4568L43.9537 40.6248L43.9861 31.9805C44.0185 22.1692 44.0725 22.8175 43.1324 22.3313C42.3544 21.9207 41.544 22.1368 41.0901 22.8824C40.8848 23.2173 40.874 23.4875 40.874 31.062C40.874 35.3842 40.82 39.2525 40.766 39.6847C40.4958 41.7918 38.8101 43.4991 36.703 43.8124C35.6981 43.9529 11.2664 43.9529 10.2506 43.8124C8.15433 43.5099 6.49025 41.8458 6.18769 39.7496C6.04721 38.7447 6.04721 14.3029 6.18769 13.298C6.50105 11.1801 8.19755 9.51607 10.3155 9.23513C10.7477 9.18111 14.6161 9.12708 18.9384 9.12708C26.5132 9.12708 26.7834 9.11627 27.1184 8.91097C27.864 8.45714 28.0801 7.64674 27.6694 6.86875C27.1832 5.93949 27.7883 5.99351 18.2901 6.00432C11.7094 6.00432 9.77518 6.03674 9.26732 6.15559Z" fill="white"/>
</svg>
